<?xml version="1.0" standalone="no"?>
<!DOCTYPE svg PUBLIC "-//W3C//DTD SVG 20010904//EN"
 "http://www.w3.org/TR/2001/REC-SVG-20010904/DTD/svg10.dtd">
<svg version="1.0" xmlns="http://www.w3.org/2000/svg"
 width="900.000000pt" height="1113.000000pt" viewBox="0 0 900.000000 1113.000000"
 preserveAspectRatio="xMidYMid meet">
<metadata>
Created by potrace 1.10, written by Peter Selinger 2001-2011
</metadata>
<g transform="translate(0.000000,1113.000000) scale(0.100000,-0.100000)"
fill="#9e2478" stroke="none">
<path d="M4504 9695 c-26 -66 130 -255 210 -255 14 0 27 -4 30 -9 3 -5 23 -12
43 -15 60 -11 213 -93 270 -145 50 -46 82 -107 83 -156 0 -18 -1 -18 -16 3
-17 25 -54 30 -54 7 0 -8 5 -15 10 -15 6 0 10 -6 10 -14 0 -8 6 -21 13 -28 22
-25 47 -79 47 -103 0 -28 17 -71 42 -104 10 -13 18 -32 18 -43 0 -48 -64 -98
-125 -98 -25 0 -37 -29 -12 -31 50 -4 84 5 102 27 23 29 48 25 68 -10 11 -20
12 -19 17 14 4 29 10 36 32 38 22 3 27 9 33 42 13 74 -20 89 -34 16 -4 -19
-14 -32 -25 -34 -25 -5 -37 17 -30 51 3 15 1 33 -5 40 -5 7 -14 50 -20 95 -6
45 -15 91 -21 102 -27 51 2 171 56 232 41 46 60 106 48 149 -14 49 -34 49 -34
0 0 -39 -2 -41 -29 -41 -16 0 -31 -5 -33 -11 -3 -8 -14 -7 -35 5 -35 17 -48 9
-38 -23 11 -35 -13 -32 -81 9 -36 22 -69 40 -72 40 -3 0 -14 8 -24 17 -13 11
-32 16 -56 14 -25 -1 -46 4 -62 17 -14 11 -38 23 -55 26 -68 17 -119 52 -180
125 -65 80 -81 92 -91 66z"/>
<path d="M4373 9668 c-7 -11 -11 -85 -14 -248 -2 -102 61 -266 144 -372 15
-19 25 -42 22 -49 -4 -8 -24 -26 -46 -40 -73 -46 -155 -123 -181 -169 -14 -25
-49 -72 -77 -105 -27 -33 -70 -85 -94 -115 -23 -30 -57 -64 -75 -75 -33 -21
-42 -52 -17 -61 8 -3 38 7 66 23 55 30 115 94 229 249 117 158 199 224 300
242 43 8 63 7 89 -4 18 -8 41 -14 50 -14 9 0 36 -10 60 -21 l45 -20 -32 -19
c-18 -11 -38 -20 -45 -20 -6 0 -30 -12 -51 -25 -33 -20 -37 -25 -23 -31 11 -4
25 0 36 10 10 9 29 16 42 16 14 0 30 5 36 11 18 18 167 8 189 -13 11 -9 45
-19 79 -22 52 -5 56 -4 30 6 -16 6 -34 17 -40 24 -5 7 -32 24 -59 38 -62 33
-105 66 -159 121 -32 33 -52 45 -86 50 -31 5 -42 4 -37 -4 4 -6 14 -11 22 -11
8 0 14 -4 14 -10 0 -5 -13 -10 -30 -10 -16 0 -30 5 -30 10 0 6 -15 10 -32 10
-42 0 -112 46 -146 96 -38 56 -91 169 -104 223 -6 25 -11 98 -12 161 -1 78 -6
124 -16 144 -17 34 -34 43 -47 24z"/>
<path d="M5336 9546 c3 -8 12 -17 19 -20 8 -3 23 -23 35 -46 11 -22 51 -71 89
-109 74 -75 131 -150 131 -176 0 -18 24 -30 40 -20 10 6 2 25 -31 85 -5 8 -22
41 -39 72 -16 31 -47 71 -69 88 -21 17 -47 47 -57 66 -19 35 -53 52 -74 39 -7
-4 -14 2 -17 14 -3 12 -11 21 -19 21 -7 0 -11 -6 -8 -14z"/>
<path d="M4816 9237 c6 -17 46 -46 101 -74 23 -12 51 -28 62 -35 26 -16 30
-11 24 29 -5 34 -44 63 -87 63 -12 0 -30 7 -40 15 -25 19 -67 20 -60 2z"/>
<path d="M5458 9159 c-2 -51 1 -68 15 -81 21 -22 24 -110 3 -127 -8 -7 -17
-24 -21 -39 -4 -15 -14 -35 -23 -45 -12 -14 -13 -20 -3 -30 15 -15 32 5 67 79
l23 52 -21 118 c-11 66 -24 123 -28 128 -5 4 -10 -20 -12 -55z"/>
<path d="M4767 9193 c-6 -10 47 -120 69 -143 9 -10 17 -11 24 -4 11 11 -15 74
-31 74 -5 0 -11 11 -15 24 -7 28 -39 61 -47 49z"/>
<path d="M5305 9134 c-9 -19 -22 -37 -30 -40 -18 -7 -39 -94 -26 -107 7 -7 12
0 17 19 4 16 10 31 14 34 11 9 70 110 70 120 0 24 -29 7 -45 -26z"/>
<path d="M5397 9053 c-3 -65 -2 -122 3 -126 4 -5 17 11 29 34 22 42 22 43 6
118 -9 42 -20 80 -25 84 -4 5 -10 -45 -13 -110z"/>
<path d="M2745 8900 c-71 -10 -139 -44 -212 -106 -54 -46 -63 -63 -68 -117 -4
-44 -14 -123 -39 -297 -8 -58 -20 -141 -26 -185 -6 -44 -18 -115 -26 -158 -8
-42 -14 -94 -14 -115 0 -20 -5 -53 -10 -72 -6 -19 -15 -87 -20 -150 -8 -114
-20 -198 -42 -315 -6 -33 -15 -87 -19 -120 -14 -114 -37 -260 -44 -276 -3 -9
-10 -47 -15 -85 -29 -215 -39 -275 -49 -305 -6 -19 -13 -66 -15 -106 -2 -40
-8 -78 -12 -85 -11 -17 -16 -69 -15 -140 1 -32 -3 -58 -7 -58 -18 0 -32 -52
-26 -91 5 -28 2 -44 -9 -57 -8 -9 -17 -35 -20 -57 -11 -77 -34 -190 -46 -218
-6 -16 -11 -50 -11 -77 0 -33 -5 -50 -15 -54 -12 -4 -15 -23 -15 -85 l0 -79
56 -48 c31 -27 71 -61 88 -76 17 -15 34 -28 37 -28 5 0 17 -9 65 -49 6 -5 20
-12 32 -15 12 -4 22 -11 22 -14 0 -4 21 -19 48 -32 26 -14 49 -28 50 -32 2 -5
14 -8 27 -8 12 0 25 -7 29 -15 3 -8 16 -15 28 -15 22 0 22 1 -7 25 -16 13 -38
24 -47 25 -10 0 -22 9 -28 20 -6 11 -26 26 -44 34 -29 12 -80 46 -191 128 -29
22 -87 79 -114 113 -16 20 -10 99 14 191 9 32 24 102 34 154 33 167 62 304 67
312 3 4 7 34 10 65 3 32 9 71 15 87 5 16 9 42 9 57 0 15 5 31 10 34 6 3 10 18
10 33 0 30 95 608 104 632 3 8 10 51 16 95 27 212 50 305 76 305 14 0 122
-216 129 -260 3 -19 10 -105 14 -190 9 -154 11 -165 63 -295 33 -83 119 -253
134 -266 8 -6 14 -15 14 -19 0 -5 22 -41 48 -82 26 -40 57 -87 68 -105 10 -17
44 -69 76 -115 60 -89 98 -156 98 -174 0 -6 7 -17 16 -24 8 -8 22 -29 30 -48
21 -50 80 -111 133 -139 76 -38 146 -51 258 -46 l103 4 10 -26 c5 -14 10 -37
10 -50 0 -13 7 -28 16 -33 13 -7 16 -19 11 -51 -10 -79 -60 -125 -135 -126
-75 0 -62 -22 17 -27 46 -4 80 -12 104 -27 l35 -21 16 25 c9 14 22 25 29 25
14 0 43 41 38 55 -8 27 -19 341 -12 348 5 5 42 3 82 -3 60 -10 112 -9 279 3
113 9 232 21 265 27 156 29 259 53 366 86 26 8 56 14 67 14 12 0 23 4 27 9 3
5 20 13 38 17 46 10 177 73 177 85 0 21 -33 21 -98 0 -37 -12 -76 -26 -87 -31
-28 -11 -113 -36 -155 -45 -19 -4 -41 -11 -50 -16 -16 -9 -81 -24 -169 -40
-29 -5 -62 -14 -72 -19 -10 -6 -37 -10 -61 -10 -24 0 -68 -6 -98 -14 -59 -15
-380 -30 -380 -18 1 9 174 112 189 112 6 0 11 5 11 10 0 6 10 15 23 20 21 10
49 26 71 43 6 4 45 30 86 57 94 62 110 73 124 85 6 6 29 22 52 38 22 15 49 35
60 45 10 9 38 30 61 46 23 15 55 45 70 65 15 20 33 40 40 44 17 11 17 52 -1
66 -7 6 -16 25 -20 41 -7 38 -26 39 -26 2 0 -48 -52 -106 -188 -207 -48 -35
-91 -68 -97 -73 -5 -4 -18 -11 -27 -15 -10 -3 -18 -11 -18 -16 0 -5 -10 -13
-22 -17 -12 -3 -28 -12 -35 -18 -27 -24 -40 -33 -103 -71 -36 -21 -70 -44 -76
-50 -6 -5 -28 -19 -50 -30 -21 -11 -42 -24 -45 -28 -8 -11 -47 -34 -71 -43
-22 -8 -24 -24 -3 -24 8 0 15 -5 15 -11 0 -7 -16 -8 -45 -3 -30 4 -45 3 -45
-5 0 -6 5 -11 10 -11 6 0 10 -5 10 -11 0 -8 -15 -9 -45 -5 -27 5 -45 3 -45 -3
0 -5 5 -11 12 -13 17 -6 -60 -48 -106 -58 -23 -5 -59 -13 -81 -19 -22 -6 -84
-11 -138 -11 -95 0 -100 1 -153 35 -41 26 -59 46 -76 82 -12 27 -34 75 -50
108 -15 33 -28 64 -28 68 0 4 -34 53 -75 107 -41 54 -75 102 -75 106 0 3 -12
23 -27 43 -35 45 -46 64 -78 126 -15 28 -35 64 -45 80 -11 17 -22 36 -25 43
-3 6 -7 18 -10 25 -3 6 -16 32 -30 56 -14 24 -25 50 -25 56 0 7 -7 18 -15 25
-8 7 -15 22 -15 34 0 12 -5 27 -11 33 -27 27 -54 286 -40 392 9 74 9 74 -17
95 -41 32 -92 85 -92 97 0 6 -7 17 -15 25 -8 9 -15 26 -15 38 0 13 -6 29 -14
35 -21 17 -39 251 -21 258 21 7 84 -174 67 -191 -2 -3 3 -12 12 -21 9 -10 16
-33 16 -56 0 -21 5 -39 10 -39 6 0 10 -7 10 -17 0 -27 33 -94 44 -90 30 10 46
179 22 225 -7 15 -24 49 -37 75 -40 81 -47 93 -84 133 -39 42 -41 50 -21 114
25 78 43 114 84 160 61 70 66 85 73 210 12 212 28 309 57 354 37 57 41 68 30
90 -7 12 -6 22 1 29 7 7 22 -1 48 -26 20 -21 43 -37 49 -37 6 0 17 -7 25 -16
8 -9 25 -14 45 -12 20 1 40 -4 52 -15 10 -9 26 -17 36 -17 9 0 31 -7 48 -16
26 -13 36 -14 51 -4 14 8 22 9 30 1 16 -16 37 -13 37 4 0 8 -4 15 -9 15 -5 0
-23 28 -39 62 -26 51 -35 62 -58 64 -30 3 -59 32 -76 77 -5 15 -14 27 -19 27
-5 0 -9 7 -9 15 0 20 50 20 76 0 10 -8 27 -15 36 -15 29 0 111 -40 133 -64 12
-14 25 -35 28 -48 8 -30 84 -118 102 -118 7 0 18 -7 25 -15 14 -17 38 -19 60
-5 13 9 13 12 -3 24 -24 19 -6 29 36 21 19 -4 60 -2 92 4 46 9 63 8 84 -3 14
-8 49 -26 76 -41 143 -75 172 -95 217 -151 71 -86 126 -169 130 -196 l3 -23
-122 1 c-68 0 -121 -2 -118 -4 3 -3 0 -11 -6 -19 -17 -19 -125 -18 -133 2 -6
17 -56 21 -56 4 0 -6 9 -13 20 -16 22 -6 26 -18 10 -28 -14 -9 -13 -78 2 -93
17 -17 43 -15 85 8 21 11 46 20 56 20 10 0 28 5 40 12 12 6 42 15 67 19 25 4
57 11 71 14 22 6 35 -2 84 -49 63 -62 86 -72 58 -26 -9 17 -20 30 -24 30 -3 0
-11 11 -17 25 -10 21 -9 27 3 31 25 10 59 -23 123 -122 6 -10 15 -26 19 -34 4
-8 26 -43 50 -78 24 -35 43 -66 43 -68 0 -3 11 -20 25 -38 14 -18 25 -40 25
-49 0 -9 5 -19 10 -22 12 -7 83 -103 93 -125 4 -8 16 -28 27 -45 36 -56 52
-99 46 -132 -4 -29 -2 -32 17 -30 20 2 22 -3 25 -58 3 -55 6 -62 48 -103 24
-24 44 -50 44 -56 0 -7 11 -33 25 -57 14 -24 27 -51 31 -59 3 -8 10 -22 15
-30 17 -29 59 -117 59 -125 0 -4 11 -23 25 -41 14 -18 25 -39 25 -47 0 -8 7
-20 15 -27 8 -7 15 -20 15 -29 0 -9 7 -25 15 -35 8 -11 15 -27 15 -36 0 -9 5
-21 12 -28 17 -17 48 -176 48 -247 0 -82 19 -109 69 -100 20 4 40 11 46 16 18
18 63 10 71 -13 8 -28 61 -100 80 -111 25 -14 15 -43 -21 -60 -19 -9 -35 -21
-35 -27 0 -6 -4 -16 -10 -23 -49 -61 -74 -87 -86 -87 -16 0 -18 -11 -5 -25 13
-15 41 -119 41 -154 0 -17 6 -48 14 -68 8 -21 17 -55 21 -75 5 -35 4 -38 -22
-43 -46 -10 -106 -26 -138 -36 -16 -6 -43 -14 -60 -19 -16 -5 -46 -14 -65 -21
-19 -6 -51 -17 -70 -24 -19 -7 -62 -20 -95 -30 -33 -9 -75 -23 -93 -31 -18 -8
-40 -14 -48 -14 -9 0 -30 -6 -47 -14 -18 -8 -43 -16 -57 -19 -33 -6 -88 -26
-123 -43 -16 -8 -39 -14 -51 -14 -12 0 -31 -7 -42 -15 -10 -8 -27 -15 -37 -15
-11 0 -32 -7 -47 -17 -25 -14 -39 -15 -112 -6 -45 6 -148 12 -228 13 l-145 2
22 -24 c12 -13 25 -35 28 -50 8 -33 25 -37 172 -42 62 -2 116 -7 122 -10 9 -6
163 8 221 20 24 5 24 6 6 20 -18 13 -18 14 -1 20 10 4 26 2 37 -5 16 -10 24
-9 43 3 14 9 29 16 36 16 11 0 40 12 124 50 63 28 258 96 390 135 33 10 97 33
142 51 45 19 86 34 91 34 14 0 96 95 118 136 17 32 17 35 -1 91 -10 32 -19 69
-20 83 -1 14 -7 46 -12 73 -13 59 2 107 46 154 33 34 38 64 20 110 -32 81 -53
113 -109 167 -42 41 -71 81 -95 131 -19 40 -35 75 -35 79 0 4 -27 63 -59 130
-33 68 -71 150 -85 183 -13 32 -45 99 -71 149 -132 254 -165 324 -165 344 0
37 -120 259 -197 364 -24 32 -43 64 -43 71 0 7 -4 15 -8 17 -5 2 -28 35 -51
73 -45 75 -113 180 -172 267 -20 29 -49 75 -64 102 -15 26 -40 56 -56 65 -22
12 -28 21 -24 37 13 54 -221 236 -400 309 -22 9 -55 23 -73 31 -18 8 -39 14
-46 14 -8 0 -27 7 -42 15 -16 8 -39 15 -51 15 -12 0 -24 4 -27 9 -3 4 -25 11
-48 15 -23 4 -47 11 -53 16 -14 12 -131 50 -154 50 -9 0 -34 6 -56 14 -48 16
-231 26 -300 16z m162 -50 c3 -11 9 -20 13 -20 4 0 10 -12 13 -27 2 -16 14
-52 25 -80 19 -49 19 -53 3 -53 -9 0 -41 22 -71 50 -101 92 -110 97 -110 60 0
-11 -3 -20 -7 -20 -18 1 -53 40 -53 58 0 17 10 23 58 32 31 7 62 14 67 15 31
10 57 3 62 -15z m-217 -52 c11 -18 20 -39 20 -47 0 -19 -39 -61 -57 -61 -9 0
-13 -14 -13 -43 0 -24 -7 -52 -15 -63 -15 -18 -16 -18 -50 21 -35 40 -38 54
-26 110 4 21 12 30 26 30 12 0 21 8 23 20 5 25 41 65 59 65 7 0 22 -15 33 -32z
m677 -70 c33 -14 63 -38 63 -50 0 -9 -61 -11 -85 -2 -8 4 -22 19 -31 35 -14
27 -13 29 5 29 11 0 33 -5 48 -12z m-838 -345 c1 -50 1 -65 -2 -148 -2 -50
-29 -115 -47 -115 -10 0 -16 38 -11 75 1 11 4 48 6 83 3 58 32 152 46 152 4 0
7 -21 8 -47z m1386 -2433 c-3 -5 -13 -10 -21 -10 -8 0 -14 5 -14 10 0 6 9 10
21 10 11 0 17 -4 14 -10z"/>
<path d="M5574 8849 c-41 -45 -74 -61 -133 -63 -68 -3 -81 -9 -81 -41 0 -23 3
-24 58 -22 44 1 63 -2 76 -15 10 -10 21 -18 26 -18 5 0 23 -13 41 -30 23 -21
36 -27 44 -19 7 7 -5 24 -37 54 l-47 44 44 45 c43 43 55 69 36 80 -4 3 -17 -4
-27 -15z"/>
<path d="M5602 8799 c2 -7 10 -15 17 -17 8 -3 12 1 9 9 -2 7 -10 15 -17 17 -8
3 -12 -1 -9 -9z"/>
<path d="M4775 8760 c-22 -11 -48 -19 -57 -20 -10 0 -18 -5 -18 -10 0 -6 -9
-14 -19 -18 -24 -9 -101 -79 -101 -92 0 -13 47 -13 55 -1 3 5 19 12 35 16 17
4 30 11 30 16 0 5 4 9 9 9 12 0 103 60 112 73 4 5 21 12 39 16 19 3 35 12 38
19 6 19 -77 14 -123 -8z"/>
<path d="M3107 8733 c5 -37 18 -61 27 -52 10 10 -7 89 -20 89 -9 0 -11 -10 -7
-37z"/>
<path d="M5355 8679 c-11 -4 -35 -5 -52 -2 -32 5 -33 4 -33 -31 0 -23 -5 -39
-15 -42 -16 -6 -21 -30 -7 -36 13 -6 52 -67 52 -83 0 -9 7 -18 15 -21 8 -4 15
-14 15 -24 0 -15 42 -112 70 -160 4 -8 21 -41 36 -72 25 -53 27 -64 21 -138
-4 -44 -11 -89 -17 -99 -11 -22 -13 -102 -4 -151 4 -20 16 -36 30 -42 32 -15
37 -7 20 27 -11 20 -12 34 -5 47 5 10 8 22 5 26 -7 12 21 121 38 147 33 50 50
49 97 -7 24 -28 52 -58 62 -67 9 -8 17 -22 17 -29 0 -8 14 -31 30 -52 17 -21
30 -45 30 -53 0 -8 7 -17 15 -21 8 -3 15 -12 15 -19 0 -8 12 -27 26 -43 14
-16 30 -41 35 -55 6 -14 21 -32 34 -39 16 -9 25 -22 25 -38 0 -13 8 -36 18
-50 19 -28 209 -410 257 -517 15 -33 35 -78 45 -100 41 -91 60 -138 60 -151 0
-8 5 -14 10 -14 6 0 10 -6 10 -14 0 -8 16 -47 35 -87 19 -41 35 -78 35 -84 0
-6 10 -31 21 -56 12 -24 32 -73 44 -109 29 -84 147 -298 196 -355 25 -29 69
-121 69 -144 0 -11 -12 -51 -26 -90 -19 -52 -50 -100 -119 -188 -52 -65 -100
-125 -108 -133 -30 -31 -88 -132 -85 -146 5 -24 23 -21 26 3 2 12 11 25 20 28
24 7 159 147 216 223 55 72 106 163 106 189 0 10 7 27 15 37 8 11 15 28 15 38
0 10 5 27 12 37 14 23 0 54 -77 164 -30 43 -55 81 -55 84 0 3 -13 22 -30 43
-16 21 -30 43 -30 48 0 6 -6 17 -12 24 -7 7 -23 36 -36 63 -13 28 -27 58 -33
67 -5 10 -9 26 -9 36 0 10 -7 27 -15 38 -8 10 -15 25 -15 32 0 8 -7 30 -16 50
-8 21 -22 52 -29 70 -8 18 -21 48 -29 67 -9 20 -22 50 -30 68 -8 17 -22 50
-31 72 -9 22 -23 54 -30 70 -8 17 -24 53 -36 80 -11 28 -32 75 -46 105 -13 30
-30 69 -37 85 -30 71 -45 104 -75 170 -64 137 -93 200 -105 230 -7 17 -23 51
-35 76 -11 25 -21 51 -21 58 0 6 -4 11 -10 11 -5 0 -10 11 -10 24 0 13 -7 29
-15 36 -8 7 -15 19 -15 26 0 8 -13 40 -30 71 -16 31 -30 62 -30 70 0 8 -6 27
-14 41 -8 15 -17 35 -20 45 -4 11 -16 17 -38 17 -33 0 -142 34 -185 58 -13 7
-23 20 -23 30 -1 9 -15 28 -31 42 -34 28 -88 106 -131 189 -38 73 -37 87 3 64
71 -40 94 -50 106 -46 7 3 32 -2 55 -10 24 -9 57 -18 74 -21 28 -4 31 -3 27
15 -3 12 -13 23 -22 26 -9 3 -35 14 -58 24 -23 11 -46 19 -51 19 -5 0 -15 7
-22 15 -9 11 -16 13 -24 5 -7 -7 -6 -14 2 -22 15 -15 16 -38 2 -38 -5 0 -10 7
-10 15 0 8 -6 15 -13 15 -18 0 -109 69 -141 107 -14 17 -26 40 -26 51 0 28 43
74 63 66 8 -3 18 -1 21 5 9 14 -6 20 -29 10z m420 -769 c-6 -9 -9 -9 -16 1
-10 17 0 34 13 21 6 -6 7 -16 3 -22z m39 -75 c18 -28 21 -45 6 -45 -8 0 -40
51 -40 65 0 14 19 3 34 -20z"/>
<path d="M3142 8649 c1 -12 9 -24 16 -27 9 -3 13 3 10 19 -1 12 -9 24 -16 27
-9 3 -13 -3 -10 -19z"/>
<path d="M5002 8648 c-14 -14 -73 -37 -122 -47 -19 -4 -51 -13 -70 -19 -19 -6
-70 -14 -112 -18 -83 -6 -97 -17 -48 -38 46 -19 182 -2 248 30 28 15 52 30 52
35 0 5 11 9 25 9 13 0 28 6 32 14 4 8 17 15 27 17 11 2 21 10 24 17 5 16 -40
16 -56 0z"/>
<path d="M5117 8645 c-4 -8 -13 -15 -21 -15 -8 0 -19 -6 -23 -12 -13 -20 -71
-58 -88 -58 -10 0 -15 -7 -13 -17 2 -10 -15 -35 -38 -57 -22 -23 -53 -63 -68
-91 -16 -27 -42 -62 -60 -77 -30 -26 -34 -26 -126 -21 -78 5 -102 3 -128 -11
-52 -27 -29 -38 72 -36 50 1 112 -1 138 -5 l46 -7 7 -89 c6 -77 11 -95 37
-131 46 -66 130 -148 150 -148 10 0 23 -11 29 -23 6 -13 28 -32 50 -41 21 -10
39 -22 39 -27 0 -5 5 -9 11 -9 6 0 -9 24 -34 53 -24 28 -52 66 -61 84 -8 17
-39 53 -67 80 -67 63 -79 94 -79 195 0 84 29 195 61 232 36 44 63 63 79 59 13
-3 19 3 23 24 3 16 29 52 57 82 28 29 49 58 47 65 -6 17 -34 19 -40 1z"/>
<path d="M5546 8621 c-4 -6 0 -14 8 -17 9 -3 16 -10 16 -15 0 -5 8 -18 18 -28
30 -34 42 -50 42 -58 0 -4 19 -28 41 -53 36 -40 40 -42 35 -19 -3 15 -24 66
-47 114 -33 69 -44 84 -51 71 -12 -21 -28 -20 -43 1 -8 11 -14 13 -19 4z"/>
<path d="M4535 8491 c-3 -5 -30 -13 -59 -16 -32 -4 -57 -13 -60 -21 -4 -9 -21
-14 -51 -14 -27 0 -45 -5 -45 -11 0 -8 12 -9 38 -5 20 4 62 11 93 16 32 6 70
17 85 25 16 8 39 15 52 15 12 0 22 5 22 10 0 13 -67 13 -75 1z"/>
<path d="M5096 8488 c-2 -7 -8 -29 -15 -49 -6 -19 -11 -46 -11 -58 0 -30 29
-119 53 -158 21 -37 115 -115 131 -110 16 5 19 27 3 27 -19 0 -47 54 -47 90 0
15 -7 44 -15 63 -8 20 -15 48 -15 63 0 16 -5 24 -12 22 -16 -6 -24 -108 -9
-108 6 0 11 -11 11 -25 0 -14 -4 -25 -10 -25 -5 0 -10 11 -10 24 0 15 -7 26
-19 29 -19 4 -19 12 -14 116 4 82 3 111 -6 111 -6 0 -13 -6 -15 -12z"/>
<path d="M5306 8353 c-8 -8 -8 -81 0 -122 11 -51 24 -24 24 49 0 64 -8 89 -24
73z"/>
<path d="M4142 8319 c5 -15 91 -38 122 -32 13 3 33 0 43 -6 24 -12 72 14 55
31 -15 15 -225 22 -220 7z"/>
<path d="M3670 8230 c-11 -7 -4 -10 25 -10 29 0 36 3 25 10 -8 5 -19 10 -25
10 -5 0 -17 -5 -25 -10z"/>
<path d="M2710 8133 c-52 -27 -80 -55 -80 -80 0 -27 7 -29 29 -9 9 8 32 18 52
24 37 10 63 6 187 -32 56 -16 107 -61 118 -103 3 -13 10 -23 15 -23 5 0 9 -8
9 -17 0 -10 7 -31 15 -46 8 -15 18 -51 24 -80 5 -28 14 -53 20 -55 14 -5 14
-85 0 -99 -8 -8 -8 -17 0 -31 9 -16 7 -24 -5 -37 -12 -12 -14 -19 -6 -27 14
-14 40 6 53 39 8 20 15 23 68 23 37 0 65 -5 73 -13 7 -8 23 -19 36 -26 13 -7
22 -21 22 -34 0 -31 62 -123 119 -177 44 -42 86 -67 171 -103 43 -19 213 -18
232 1 7 7 22 12 34 12 13 0 29 7 38 15 8 8 19 15 24 15 15 0 152 132 152 146
0 6 7 14 15 18 8 3 15 14 15 24 0 11 7 25 15 32 8 7 15 28 15 46 0 19 5 34 10
34 6 0 10 31 10 74 0 74 0 74 35 95 41 24 44 43 10 65 -31 20 -55 20 -55 0 0
-14 -8 -15 -57 -9 -95 12 -382 6 -412 -9 -14 -7 -42 -16 -61 -20 -22 -4 -48
-21 -71 -46 -21 -22 -44 -40 -52 -40 -10 0 -16 -17 -20 -57 -7 -68 1 -80 34
-55 53 42 85 52 134 43 26 -5 52 -14 58 -20 6 -6 36 -11 66 -11 32 0 61 -6 70
-14 21 -18 68 -28 76 -17 6 10 95 54 133 65 12 4 22 14 22 21 0 16 40 46 52
39 13 -8 9 -69 -7 -90 -8 -10 -15 -32 -15 -47 0 -16 -8 -39 -17 -52 -10 -12
-25 -33 -33 -45 -27 -42 -116 -130 -131 -130 -8 0 -23 -7 -33 -15 -11 -8 -29
-15 -41 -15 -12 0 -27 -6 -34 -12 -18 -19 -158 -15 -196 6 -16 9 -35 16 -41
16 -42 0 -194 131 -194 166 0 8 -4 14 -10 14 -5 0 -13 12 -16 28 -4 15 -12 34
-19 42 -12 14 -30 84 -42 166 -3 18 3 49 15 75 12 29 18 58 15 85 -3 29 0 50
12 67 19 29 13 49 -11 40 -11 -4 -14 -13 -10 -29 5 -17 2 -24 -8 -24 -18 0
-26 -22 -26 -70 0 -21 -4 -42 -10 -45 -5 -3 -10 -44 -10 -91 0 -83 -1 -85 -27
-95 -15 -5 -47 -9 -72 -7 -46 3 -46 3 -54 48 -4 25 -11 75 -15 112 -4 37 -13
73 -20 80 -6 6 -12 22 -12 34 0 12 -7 27 -15 34 -8 7 -15 18 -15 25 0 7 -7 19
-16 26 -11 9 -15 24 -11 50 9 66 -57 98 -253 125 -22 3 -48 -2 -70 -13z m1301
-383 c34 -19 22 -52 -29 -79 -25 -13 -29 -31 -8 -31 16 0 31 -18 22 -27 -3 -3
-17 2 -30 11 -14 9 -32 16 -41 16 -22 0 -75 57 -75 80 0 32 22 35 42 7 24 -33
54 -35 64 -4 6 19 21 36 32 37 2 0 12 -5 23 -10z m-201 -54 c14 -30 30 -48 51
-55 63 -22 19 -47 -64 -36 -29 4 -55 12 -59 18 -11 18 -101 37 -116 24 -10 -8
-16 -7 -22 2 -9 16 -2 47 14 60 17 14 82 29 133 30 39 1 42 -1 63 -43z m311
33 c18 -9 16 -13 -30 -45 -72 -49 -88 -45 -49 11 33 47 46 52 79 34z"/>
<path d="M3495 8134 c-6 -9 -24 -17 -41 -18 -17 -2 -42 -11 -55 -20 -22 -16
-23 -18 -6 -30 9 -7 17 -18 17 -25 0 -18 14 -13 41 17 13 15 38 35 54 44 17 9
31 24 33 32 5 21 -30 21 -43 0z"/>
<path d="M3290 8080 c0 -17 39 -50 60 -50 30 0 24 23 -11 43 -35 19 -49 22
-49 7z"/>
<path d="M3380 8005 c0 -14 5 -25 10 -25 6 0 10 11 10 25 0 14 -4 25 -10 25
-5 0 -10 -11 -10 -25z"/>
<path d="M3698 7919 c-24 -14 -22 -44 4 -69 l22 -20 23 25 c30 32 63 40 108
25 37 -12 105 -6 105 10 0 5 -25 12 -55 15 -30 4 -58 11 -61 16 -7 12 -125 11
-146 -2z"/>
<path d="M2702 7769 c-35 -23 -39 -51 -8 -57 10 -2 28 5 39 16 12 11 36 27 52
35 l30 16 -27 1 c-14 0 -32 2 -40 5 -7 3 -28 -5 -46 -16z"/>
<path d="M2815 7685 c-27 -7 -64 -14 -81 -14 -44 -1 -60 -37 -30 -73 11 -14
30 -40 41 -59 11 -18 25 -41 31 -52 6 -10 20 -24 30 -31 27 -18 91 -29 99 -16
3 5 13 10 21 10 8 0 40 12 70 26 52 24 54 27 39 44 -14 15 -14 18 0 30 8 7 15
22 15 33 0 11 7 25 16 31 24 18 -23 55 -92 71 -70 17 -93 17 -159 0z m73 -105
c16 -36 28 -50 42 -50 13 0 20 -7 20 -19 0 -40 -62 -33 -127 14 -66 48 -79 85
-30 85 12 0 29 5 37 10 26 17 34 11 58 -40z m42 32 c0 -11 10 -24 23 -29 21
-10 25 -8 35 19 12 32 32 30 32 -4 0 -22 -38 -68 -57 -68 -16 0 -63 62 -63 83
0 10 7 17 15 17 8 0 15 -8 15 -18z"/>
<path d="M3176 7481 c-4 -33 -12 -66 -19 -73 -7 -8 -21 -31 -32 -53 -11 -21
-33 -53 -48 -69 -16 -17 -31 -43 -34 -59 -3 -15 -10 -30 -14 -33 -5 -3 -9 -26
-10 -52 0 -26 -4 -56 -8 -67 -10 -25 6 -64 42 -104 15 -17 27 -35 27 -40 0 -5
18 -29 39 -52 38 -42 40 -43 73 -32 18 7 50 15 71 19 20 3 40 10 43 15 3 5 15
9 27 9 12 0 35 7 51 15 15 8 38 15 50 15 24 0 76 24 124 59 53 38 43 98 -32
179 -36 38 -66 41 -102 7 -24 -22 -25 -25 -9 -31 10 -4 26 -2 36 4 10 7 23 12
29 12 15 0 50 -33 50 -46 0 -7 7 -14 15 -18 21 -8 19 -43 -5 -56 -23 -12 -87
0 -139 26 -31 15 -42 16 -100 5 -151 -30 -174 -26 -212 36 -23 38 -21 95 6
147 8 16 15 35 15 42 0 8 7 17 15 20 8 4 15 12 15 19 0 7 7 15 15 19 8 3 15
10 15 15 0 6 14 30 30 54 36 54 38 76 6 106 l-23 22 -7 -60z m144 -480 c0 -5
-11 -12 -24 -15 -17 -4 -26 -15 -31 -36 -9 -41 -29 -38 -78 12 l-41 41 62 -6
c36 -4 64 -3 67 3 8 12 45 13 45 1z m90 -40 c0 -10 -50 -25 -57 -17 -3 2 -2 9
2 15 8 13 55 15 55 2z"/>
<path d="M4283 7494 c-30 -23 -33 -30 -33 -80 0 -68 24 -77 33 -12 6 45 41 82
67 72 38 -15 50 -16 50 -2 0 22 -33 48 -61 48 -13 0 -39 -12 -56 -26z"/>
<path d="M4430 7358 c-25 -13 -51 -18 -90 -16 -66 2 -75 -17 -17 -37 46 -16
108 -3 143 30 47 43 26 57 -36 23z"/>
<path d="M3197 7364 c-11 -11 3 -24 24 -24 12 0 19 5 17 13 -5 14 -31 21 -41
11z"/>
<path d="M2991 7300 c-73 -66 -115 -83 -203 -83 -59 -1 -82 3 -96 16 -19 17
-44 22 -55 11 -8 -9 74 -64 95 -64 9 0 20 -4 23 -10 3 -5 21 -10 40 -10 19 0
37 5 40 10 3 6 20 10 37 10 38 0 157 88 158 118 0 6 5 12 10 12 6 0 10 7 10
15 0 23 -11 18 -59 -25z"/>
<path d="M3088 6733 c-35 -36 -55 -82 -49 -111 1 -8 -4 -20 -11 -29 -10 -13
-9 -18 7 -29 25 -18 49 -18 65 1 15 18 42 19 58 3 19 -19 123 -15 154 6 23 15
40 17 115 12 48 -4 108 -7 133 -9 25 -1 50 -5 55 -8 6 -4 42 -9 81 -13 56 -5
73 -4 83 7 19 24 -11 47 -53 40 -28 -4 -44 2 -92 35 -110 75 -155 102 -168
102 -8 0 -19 7 -26 15 -20 24 -79 18 -148 -17 -52 -25 -67 -29 -81 -20 -9 7
-26 16 -38 21 -11 6 -24 15 -28 20 -10 17 -19 13 -57 -26z m286 -36 c-4 -12
-11 -25 -16 -28 -5 -3 10 -9 33 -13 62 -10 32 -26 -48 -26 -49 0 -63 -3 -63
-15 0 -11 -12 -15 -44 -15 -57 0 -76 8 -76 31 0 24 43 35 77 20 28 -13 31 -12
47 21 12 24 75 60 89 51 4 -3 5 -14 1 -26z"/>
<path d="M4754 6737 c-17 -18 -23 -41 -28 -114 -7 -85 -6 -96 15 -130 23 -40
96 -110 105 -101 3 3 -4 21 -15 39 -69 118 -80 166 -61 267 5 30 9 57 7 58 -1
1 -12 -7 -23 -19z"/>
<path d="M4681 6668 c1 -87 17 -105 18 -20 1 42 -3 72 -9 72 -5 0 -10 -24 -9
-52z"/>
<path d="M3606 6485 c-9 -13 -16 -27 -16 -31 0 -9 50 39 50 49 0 15 -18 6 -34
-18z"/>
<path d="M3110 6407 c0 -8 15 -29 34 -48 19 -19 36 -43 38 -54 3 -15 10 -19
28 -17 61 9 157 2 185 -12 17 -9 39 -16 50 -16 12 0 25 -4 30 -9 6 -5 43 -11
84 -13 69 -3 74 -2 82 20 7 18 5 24 -12 30 -11 4 -26 19 -32 32 -11 22 -20 25
-67 27 -88 4 -128 9 -142 20 -7 6 -64 13 -127 15 -92 4 -115 8 -123 21 -11 20
-28 22 -28 4z"/>
<path d="M4645 6353 c2 -47 6 -59 21 -63 30 -8 64 -34 64 -47 0 -10 -23 -13
-82 -13 -94 0 -124 -11 -87 -30 16 -9 50 -11 116 -6 89 6 96 5 151 -22 32 -16
81 -32 108 -36 27 -4 57 -15 66 -23 22 -19 52 -13 57 12 2 11 8 23 14 27 17
11 7 15 -63 28 -63 12 -106 26 -180 58 -54 24 -131 96 -152 143 -21 48 -36 36
-33 -28z"/>
<path d="M5600 5676 c0 -9 7 -16 16 -16 9 0 14 5 12 12 -6 18 -28 21 -28 4z"/>
<path d="M1920 5610 c0 -25 -6 -42 -16 -48 -10 -5 -18 -27 -21 -53 -4 -43 -3
-45 53 -94 32 -27 72 -64 90 -81 18 -16 49 -39 68 -49 20 -11 36 -23 36 -27 0
-5 6 -8 13 -8 8 0 25 -9 38 -20 40 -32 42 -34 113 -69 37 -19 73 -40 80 -46
14 -13 112 -73 140 -86 12 -5 28 -13 36 -18 24 -15 87 -41 99 -41 6 0 11 -4
11 -10 0 -5 9 -10 19 -10 11 0 26 -6 33 -13 7 -7 21 -16 31 -20 10 -4 17 -17
17 -31 0 -20 6 -26 33 -31 38 -8 115 -33 139 -46 10 -5 46 -18 80 -30 35 -12
68 -25 73 -29 6 -4 44 -17 85 -29 41 -13 86 -27 100 -32 14 -5 45 -13 70 -18
25 -5 59 -14 75 -19 17 -6 57 -18 90 -27 33 -9 74 -21 90 -26 17 -6 63 -13
104 -16 61 -5 73 -4 69 8 -3 8 -25 19 -51 24 -25 6 -52 16 -59 23 -6 6 -19 12
-28 12 -9 0 -33 9 -55 20 -22 11 -58 20 -82 20 -23 0 -45 5 -48 10 -3 6 -35
10 -70 10 -35 0 -67 5 -70 10 -3 6 -16 10 -28 10 -12 0 -34 6 -48 14 -14 7
-39 16 -55 20 -16 4 -46 18 -66 32 -21 13 -46 24 -57 24 -10 0 -24 7 -31 15
-7 8 -20 15 -30 15 -10 0 -38 11 -61 25 -24 14 -56 25 -71 25 -15 0 -62 23
-110 55 -45 30 -87 55 -93 55 -5 0 -23 14 -39 30 -16 17 -38 30 -48 30 -10 0
-49 14 -86 31 -37 17 -96 45 -132 61 -98 46 -287 175 -357 245 -65 65 -85 112
-64 151 14 26 14 92 1 92 -5 0 -10 -18 -10 -40z"/>
<path d="M6392 5318 c6 -17 143 -58 209 -62 31 -2 66 -9 78 -15 12 -7 25 -9
30 -6 5 2 29 -4 52 -15 24 -11 54 -20 67 -20 12 0 25 -7 29 -16 4 -10 13 -14
29 -10 34 9 75 -10 67 -30 -5 -14 -2 -16 18 -11 51 15 136 20 143 9 13 -22
-28 -78 -133 -182 -58 -58 -124 -129 -146 -158 -21 -28 -42 -52 -46 -52 -4 0
-23 -21 -43 -47 -64 -84 -130 -168 -184 -234 -29 -35 -69 -84 -88 -109 -19
-25 -54 -70 -78 -100 -38 -48 -232 -335 -338 -500 -39 -61 -90 -165 -198 -405
-12 -27 -40 -76 -62 -109 -62 -92 -139 -230 -207 -371 -34 -71 -66 -137 -71
-146 -5 -9 -25 -56 -45 -105 -20 -49 -42 -102 -49 -119 -8 -16 -20 -48 -27
-70 -7 -22 -17 -46 -22 -53 -5 -6 -13 -27 -16 -45 -8 -38 -32 -46 -76 -25 -16
8 -68 30 -115 48 -47 17 -116 47 -155 64 -38 18 -90 41 -115 52 -25 10 -66 30
-91 45 -25 15 -56 30 -68 34 -18 5 -20 9 -10 21 9 11 8 14 -4 14 -8 0 -20 6
-26 14 -7 8 -27 18 -44 22 -18 3 -44 16 -59 28 -25 20 -42 32 -161 121 -26 19
-52 35 -57 35 -6 0 -10 3 -10 8 0 4 -28 28 -61 52 -34 25 -76 59 -93 77 -17
17 -53 42 -81 56 -27 14 -59 34 -69 46 -11 12 -24 21 -29 21 -10 0 -166 78
-222 111 -16 10 -86 45 -155 79 -148 73 -272 135 -297 149 -10 5 -45 22 -78
36 -87 39 -158 75 -176 91 -8 8 -19 14 -24 14 -10 0 -135 60 -152 72 -9 7 -9
16 -1 34 6 13 15 24 20 24 4 0 8 7 8 15 0 8 5 15 10 15 6 0 10 7 10 16 0 12
-8 8 -31 -14 -44 -43 -86 -59 -111 -43 -35 22 -92 49 -169 80 -42 18 -94 47
-115 66 -49 44 -96 77 -307 215 -181 119 -308 212 -372 272 -62 59 -79 51 -63
-27 9 -46 14 -53 63 -84 29 -19 65 -45 79 -58 37 -34 154 -123 162 -123 3 0
23 -13 44 -30 21 -17 41 -30 45 -30 4 0 24 -13 44 -28 20 -16 43 -32 51 -35 8
-4 29 -16 45 -27 39 -25 111 -60 124 -60 21 0 11 -29 -19 -57 -17 -15 -111
-107 -208 -203 l-177 -175 -13 -65 c-7 -36 -17 -94 -22 -130 -11 -84 -35 -139
-72 -170 -24 -21 -31 -36 -39 -93 -13 -95 -6 -321 10 -341 8 -10 11 -28 7 -46
-4 -22 -1 -32 9 -36 8 -4 15 -15 15 -26 0 -12 14 -43 30 -70 18 -28 30 -62 30
-82 0 -19 10 -47 24 -67 50 -70 96 -151 96 -169 0 -10 16 -37 35 -60 19 -23
42 -57 51 -75 14 -30 95 -90 147 -108 15 -6 17 -26 17 -226 0 -217 7 -266 31
-204 16 41 9 370 -8 405 -7 16 -18 28 -23 28 -6 0 -10 5 -10 10 0 6 -33 43
-73 83 -40 39 -79 83 -87 96 -8 13 -19 29 -25 35 -19 22 -50 71 -61 96 -6 14
-20 45 -31 70 -11 25 -26 65 -33 90 -8 25 -20 52 -27 61 -7 8 -13 24 -13 35 0
10 -7 32 -15 48 -8 15 -15 40 -15 55 -1 14 -7 53 -15 86 -18 73 -19 178 -3
297 11 84 13 90 45 109 18 11 33 25 33 30 0 6 34 56 76 112 93 125 299 331
414 414 47 35 92 69 101 76 26 23 57 26 81 9 34 -25 54 -36 143 -82 86 -44
105 -54 133 -70 9 -6 24 -13 32 -16 8 -3 22 -9 30 -14 8 -5 35 -19 60 -30 25
-12 52 -26 60 -31 8 -5 22 -12 30 -15 8 -3 22 -10 30 -15 8 -5 22 -12 30 -15
32 -13 146 -66 160 -75 8 -5 22 -12 30 -15 29 -11 85 -37 100 -46 8 -4 22 -11
30 -14 8 -3 22 -10 30 -15 8 -5 38 -20 65 -34 58 -30 72 -38 100 -53 11 -6 57
-30 102 -52 45 -23 92 -51 105 -64 13 -12 43 -37 68 -56 25 -19 52 -41 61 -49
9 -9 27 -25 40 -36 14 -11 51 -42 84 -70 62 -53 70 -58 150 -100 28 -14 64
-35 80 -45 17 -11 66 -38 110 -60 86 -44 105 -54 133 -70 9 -6 24 -13 32 -16
32 -13 148 -68 210 -99 152 -77 177 -89 210 -103 19 -8 42 -19 50 -24 8 -4 22
-11 30 -14 8 -3 26 -11 40 -18 55 -29 77 -28 99 3 12 16 21 38 21 49 0 11 6
25 14 31 8 6 16 24 19 39 7 42 40 130 73 195 8 16 14 35 14 42 0 7 6 26 14 42
8 15 28 57 44 93 38 84 71 151 82 170 18 30 118 246 125 268 3 12 13 22 22 22
8 0 52 -37 98 -82 45 -46 112 -111 147 -145 36 -34 68 -69 71 -77 8 -21 -12
-209 -24 -220 -13 -14 -11 -46 2 -46 7 0 23 12 36 26 20 22 23 33 18 70 -3 24
-7 64 -10 88 -9 67 10 69 64 8 30 -34 54 -52 69 -52 26 0 27 7 7 69 -8 25 -21
98 -30 160 -9 67 -22 122 -30 131 -8 9 -15 31 -15 48 0 34 -8 40 -28 20 -13
-13 -35 7 -92 82 -18 25 -38 50 -45 55 -6 6 -32 38 -58 71 l-48 61 46 67 c25
36 45 68 45 71 0 3 12 24 27 48 39 59 51 80 59 97 4 8 19 31 33 50 14 19 31
43 36 52 32 53 263 370 316 432 9 12 59 73 109 136 104 130 139 173 226 274
34 39 74 86 90 105 16 18 52 58 79 89 28 30 55 62 61 71 7 9 39 45 73 80 52
54 61 70 61 100 0 42 -23 81 -48 81 -9 -1 -28 -7 -41 -14 -17 -10 -34 -11 -60
-4 -20 5 -56 14 -81 20 -25 6 -54 17 -65 24 -11 8 -31 14 -45 14 -14 0 -34 7
-44 15 -11 8 -29 15 -41 15 -12 0 -25 4 -30 9 -6 5 -41 18 -79 30 -81 24 -301
31 -294 9z m-3862 -1633 c42 -22 37 -41 -14 -63 -24 -11 -47 -25 -50 -31 -16
-25 -25 2 -11 29 8 16 15 37 15 48 0 35 16 40 60 17z m-206 -216 c-18 -20 -34
-25 -34 -11 0 16 44 56 48 43 2 -7 -4 -21 -14 -32z m3656 -143 c10 -22 43 -69
73 -104 33 -38 64 -87 77 -120 12 -31 26 -65 31 -74 11 -21 12 -48 2 -48 -12
1 -33 19 -140 116 -54 50 -114 105 -133 121 l-35 31 16 34 c23 46 69 99 81 92
5 -3 18 -25 28 -48z"/>
<path d="M3150 5092 c0 -19 192 -142 222 -142 5 0 28 -8 51 -18 23 -11 74 -25
112 -32 66 -12 73 -11 105 9 19 11 28 21 20 22 -83 3 -149 13 -175 23 -18 8
-52 17 -76 21 -25 4 -60 19 -81 36 -20 15 -56 36 -80 46 -23 9 -49 23 -56 30
-15 14 -42 18 -42 5z"/>
<path d="M2966 5002 c-3 -6 -1 -14 5 -17 15 -10 25 3 12 16 -7 7 -13 7 -17 1z"/>
<path d="M7200 4968 c0 -8 11 -27 24 -41 32 -34 111 -138 119 -157 4 -8 16
-28 27 -45 11 -16 22 -37 26 -45 3 -8 10 -22 15 -30 5 -8 12 -22 15 -30 3 -8
18 -42 34 -75 17 -36 31 -86 35 -125 4 -36 11 -84 16 -107 5 -23 9 -224 10
-446 0 -330 3 -409 15 -432 8 -15 14 -42 14 -61 0 -18 6 -48 14 -66 12 -30 23
-66 61 -198 43 -150 59 -221 75 -325 5 -33 13 -73 19 -88 6 -16 11 -49 11 -75
0 -26 7 -74 15 -107 8 -33 15 -91 15 -130 1 -38 6 -97 11 -130 5 -33 13 -139
18 -235 5 -96 14 -205 20 -241 6 -38 11 -214 10 -423 -1 -322 1 -359 16 -383
10 -15 24 -49 31 -77 11 -43 11 -53 -1 -66 -12 -14 -12 -19 -1 -36 7 -10 16
-32 18 -49 3 -16 10 -43 16 -60 6 -16 17 -56 26 -88 9 -31 22 -81 30 -110 19
-70 35 -148 47 -231 5 -38 14 -77 19 -87 6 -10 10 -35 10 -56 0 -21 3 -55 6
-76 l7 -37 61 1 61 0 -34 17 c-32 16 -33 18 -28 67 3 27 1 70 -4 95 -23 101
-32 157 -33 185 0 17 -5 33 -10 37 -5 3 -13 30 -17 60 -11 67 -22 114 -49 203
-11 39 -28 113 -36 165 -9 52 -24 129 -35 170 -19 75 -24 195 -14 315 7 83 8
322 2 332 -3 4 -8 77 -11 162 -3 84 -9 157 -12 162 -3 5 -7 62 -10 127 -2 64
-7 140 -12 169 -6 33 -5 56 1 62 7 7 7 14 0 23 -15 19 -21 52 -28 148 -4 46
-11 92 -15 101 -10 17 -27 106 -34 169 -7 71 -27 166 -40 195 -8 17 -17 53
-21 80 -4 28 -15 64 -24 80 -8 17 -16 44 -17 61 -1 17 -8 46 -18 64 -9 18 -16
43 -16 54 0 12 -6 30 -13 41 -7 11 -19 49 -25 85 -12 61 -15 131 -27 575 -10
352 -15 445 -25 462 -15 28 -60 145 -60 158 0 7 -11 29 -25 49 -14 20 -25 45
-25 56 0 10 -4 22 -10 25 -5 3 -17 22 -26 41 -28 58 -144 173 -181 180 -25 5
-33 3 -33 -8z"/>
<path d="M3020 4962 c0 -6 15 -15 33 -21 42 -12 95 -31 134 -48 17 -7 42 -13
56 -13 14 0 38 -7 53 -15 16 -8 39 -15 50 -15 12 0 38 -7 57 -15 20 -8 49 -15
66 -15 16 0 42 -7 57 -15 34 -18 144 -21 127 -4 -6 6 -39 13 -74 16 -35 4 -70
12 -77 20 -7 7 -30 13 -51 13 -20 0 -41 4 -46 9 -9 8 -89 31 -165 47 -14 3
-38 11 -55 19 -88 38 -165 55 -165 37z"/>
<path d="M4500 4942 c-27 -12 -31 -16 -17 -20 10 -2 26 3 35 11 9 8 24 17 32
20 13 5 13 5 0 5 -8 0 -31 -7 -50 -16z"/>
<path d="M4038 4915 c-26 -34 -22 -48 7 -29 24 16 33 38 18 47 -5 3 -16 -6
-25 -18z"/>
<path d="M7104 4815 c-4 -9 -2 -26 4 -38 6 -12 13 -34 16 -49 4 -16 11 -28 16
-28 6 0 10 -13 10 -28 0 -16 7 -37 15 -48 8 -10 15 -28 15 -39 0 -11 9 -38 20
-60 11 -22 19 -56 20 -75 0 -20 6 -44 14 -55 7 -11 14 -46 14 -78 0 -33 5 -71
10 -85 6 -15 13 -77 15 -139 3 -61 11 -122 18 -135 7 -13 16 -86 20 -168 25
-445 26 -466 43 -497 10 -20 16 -56 16 -96 0 -34 5 -68 11 -74 6 -6 13 -44 16
-84 2 -40 9 -79 15 -86 5 -7 11 -44 13 -83 2 -39 8 -77 15 -86 8 -9 13 -40 12
-77 0 -35 5 -71 12 -82 7 -11 16 -51 21 -90 4 -38 10 -74 15 -80 4 -5 11 -41
15 -80 4 -38 10 -74 15 -80 4 -5 10 -39 14 -74 3 -36 11 -68 16 -71 6 -4 13
-35 16 -70 3 -35 12 -73 20 -84 9 -13 14 -46 14 -94 0 -52 4 -78 15 -88 11
-12 15 -40 15 -117 0 -106 6 -147 21 -147 16 0 10 242 -6 270 -9 15 -14 54
-15 101 0 41 -5 80 -11 86 -5 5 -13 37 -16 69 -3 32 -11 78 -19 102 -8 23 -14
62 -14 85 0 24 -5 48 -10 53 -6 6 -13 42 -17 80 -3 38 -10 75 -16 82 -6 7 -11
41 -12 75 -1 35 -9 75 -19 92 -10 18 -16 54 -16 91 0 33 -5 65 -11 71 -6 6
-14 42 -16 80 -3 37 -10 77 -16 88 -6 11 -11 45 -13 76 -1 30 -9 77 -18 103
-9 26 -16 71 -16 101 0 30 -4 64 -10 77 -5 13 -14 83 -19 156 -5 74 -14 139
-20 145 -7 7 -11 69 -11 180 0 105 -4 176 -11 189 -6 12 -14 71 -16 132 -3 63
-9 114 -15 118 -6 3 -12 33 -12 66 -1 42 -6 66 -18 79 -13 14 -18 37 -18 74
-1 32 -7 62 -15 73 -8 11 -15 30 -15 42 0 12 -7 24 -15 28 -10 3 -15 19 -15
44 0 23 -6 45 -15 52 -8 7 -15 21 -15 32 0 10 -7 21 -15 24 -8 4 -15 17 -15
29 0 29 -18 42 -26 20z"/>
<path d="M3998 4749 c-16 -15 -28 -31 -28 -34 0 -4 19 -5 43 -1 23 3 96 6 162
7 105 2 126 5 165 26 l45 24 -45 -5 c-25 -4 -92 -9 -150 -12 -58 -3 -109 -10
-114 -15 -17 -16 -34 -10 -43 15 l-8 24 -27 -29z"/>
<path d="M2405 4741 c-6 -5 -39 -24 -75 -43 -36 -20 -91 -49 -122 -66 -31 -17
-65 -36 -75 -41 -10 -5 -39 -19 -65 -31 -25 -11 -49 -27 -52 -35 -3 -8 -12
-15 -21 -15 -8 0 -15 -5 -15 -11 0 -8 11 -9 31 -5 17 3 70 6 118 6 77 1 84 2
67 15 -18 14 -18 15 5 39 13 14 30 26 38 26 8 0 24 8 35 19 19 16 107 58 160
75 15 5 16 9 6 21 -6 8 -9 23 -5 35 7 21 -12 28 -30 11z"/>
<path d="M3831 4576 c-30 -11 -31 -13 -17 -25 21 -18 79 -2 84 22 4 20 -17 21
-67 3z"/>
<path d="M3922 4542 c3 -13 20 -18 83 -24 44 -4 113 -10 154 -14 53 -5 72 -3
67 5 -4 6 -24 11 -45 11 -21 0 -51 6 -67 14 -16 8 -66 16 -112 19 -74 5 -83 3
-80 -11z"/>
<path d="M3046 4541 c-3 -5 0 -14 8 -20 8 -7 17 -27 20 -47 9 -43 26 -35 26
12 0 24 5 37 18 41 14 6 13 8 -8 14 -36 10 -58 10 -64 0z"/>
<path d="M3150 4492 c0 -17 8 -32 21 -40 29 -18 43 -2 34 37 -5 24 -12 31 -31
31 -20 0 -24 -5 -24 -28z"/>
<path d="M3305 4510 c-8 -13 20 -24 41 -16 20 8 9 26 -16 26 -10 0 -22 -5 -25
-10z"/>
<path d="M3380 4481 c0 -14 15 -17 65 -13 25 2 42 8 39 13 -7 12 -104 12 -104
0z"/>
<path d="M3220 4447 c0 -17 32 -47 49 -47 6 0 24 -9 39 -20 17 -13 35 -18 50
-14 30 8 23 28 -12 32 -15 2 -30 10 -33 18 -3 8 -11 14 -18 14 -7 0 -18 7 -25
15 -15 19 -50 20 -50 2z"/>
<path d="M3510 4450 c0 -5 12 -10 26 -10 14 0 23 4 19 10 -3 6 -15 10 -26 10
-10 0 -19 -4 -19 -10z"/>
<path d="M3676 4402 c-12 -14 -13 -21 -4 -30 20 -20 38 -14 38 12 0 33 -14 40
-34 18z"/>
<path d="M3748 4318 c9 -9 15 -9 24 0 9 9 7 12 -12 12 -19 0 -21 -3 -12 -12z"/>
<path d="M3290 4305 c0 -12 143 -145 155 -145 8 0 40 -18 72 -39 33 -21 78
-45 101 -52 39 -11 44 -11 82 17 23 16 47 33 54 38 9 6 25 4 46 -6 31 -15 36
-15 72 4 21 11 38 24 38 29 0 5 11 9 25 9 30 0 31 4 5 30 -23 23 -50 26 -50 7
0 -8 -9 -22 -19 -31 -21 -19 -72 -15 -120 10 -37 19 -41 18 -35 -13 4 -23 0
-31 -23 -44 -31 -17 -12 -24 -178 66 -38 20 -77 44 -86 51 -8 8 -21 14 -27 14
-7 0 -31 14 -54 30 -39 29 -58 37 -58 25z"/>
<path d="M3800 4288 c0 -30 13 -58 26 -58 17 0 18 24 4 51 -12 21 -30 26 -30
7z"/>
<path d="M3946 4282 c-5 -9 46 -52 63 -52 14 0 21 -27 15 -59 -9 -43 20 -68
74 -63 l42 4 -36 29 c-20 16 -41 29 -45 29 -5 0 -9 12 -9 26 0 44 -86 114
-104 86z"/>
<path d="M2675 4233 c5 -10 10 -33 13 -50 2 -18 9 -33 14 -33 6 0 8 12 4 30
-5 26 -2 32 19 42 30 14 16 28 -29 28 -23 0 -27 -3 -21 -17z"/>
<path d="M2816 4235 c-8 -8 -19 -15 -25 -15 -6 0 -15 -9 -21 -20 -19 -35 36
-91 63 -64 3 4 -4 14 -16 24 l-21 18 36 36 c28 28 32 36 18 36 -10 0 -25 -7
-34 -15z"/>
<path d="M2934 4209 c-3 -6 0 -15 7 -20 18 -11 21 -11 39 1 13 9 13 11 0 20
-20 13 -37 13 -46 -1z"/>
<path d="M1797 4146 c-14 -13 -29 -37 -32 -53 -4 -15 -15 -46 -26 -68 -11 -22
-19 -54 -18 -70 0 -17 -5 -70 -11 -120 -13 -97 -7 -341 11 -430 23 -115 30
-188 30 -330 0 -183 -9 -415 -17 -435 -9 -20 -34 -127 -41 -170 -3 -19 -12
-44 -19 -56 -8 -11 -12 -23 -9 -26 3 -3 -4 -33 -15 -68 -11 -34 -20 -81 -20
-104 0 -23 -6 -50 -14 -61 -7 -11 -16 -53 -19 -93 -3 -41 -11 -80 -17 -87 -6
-7 -13 -30 -15 -51 -17 -133 -44 -274 -56 -290 -5 -6 -6 -14 -3 -17 3 -3 -1
-34 -9 -69 -20 -81 -32 -203 -43 -443 -4 -71 -11 -138 -16 -148 -6 -11 -6 -23
0 -30 5 -7 8 -43 6 -82 -2 -38 -6 -171 -8 -296 -4 -187 -8 -240 -27 -314 -21
-86 -21 -91 -4 -143 9 -30 13 -58 8 -63 -4 -4 -30 -12 -58 -17 l-50 -10 75 -1
c74 -1 76 0 94 30 16 28 17 32 2 48 -30 33 -14 120 32 173 13 15 14 45 9 185
-11 287 12 793 45 998 6 39 14 102 19 140 4 39 12 97 18 130 6 33 11 84 11
113 0 29 4 61 10 71 5 10 14 58 20 107 13 112 34 244 42 264 4 8 9 40 11 71 3
31 10 65 16 75 5 11 13 40 16 66 3 26 10 50 16 53 5 4 9 21 9 38 0 18 7 45 15
61 21 40 27 688 7 755 -19 63 -17 379 3 456 8 33 15 71 15 86 0 14 7 46 15 69
8 23 15 57 15 76 0 18 5 45 10 60 15 39 -2 49 -33 20z"/>
<path d="M3072 4148 c3 -7 15 -15 27 -16 16 -3 22 1 19 10 -3 7 -15 15 -27 16
-16 3 -22 -1 -19 -10z"/>
<path d="M2716 4131 c-4 -5 -4 -15 -1 -23 7 -17 45 -41 53 -33 4 3 2 9 -4 13
-6 4 -14 17 -18 30 -8 23 -21 29 -30 13z"/>
<path d="M2959 4124 c-30 -36 -89 -42 -89 -8 0 8 -7 14 -15 14 -8 0 -15 -9
-15 -20 0 -11 -4 -20 -10 -20 -5 0 -10 -8 -10 -17 1 -17 1 -17 14 0 16 21 36
22 36 2 0 -22 70 -17 98 8 23 21 28 42 13 51 -5 3 -14 -1 -22 -10z"/>
<path d="M3130 4121 c0 -5 7 -12 16 -15 22 -9 24 -8 24 9 0 8 -9 15 -20 15
-11 0 -20 -4 -20 -9z"/>
<path d="M3948 4066 c-24 -18 -23 -22 10 -35 15 -6 32 -22 37 -34 12 -27 45
-36 45 -11 0 9 -8 23 -17 31 -13 10 -15 16 -5 19 19 9 14 24 -7 24 -11 0 -23
5 -26 10 -8 13 -16 12 -37 -4z"/>
<path d="M2780 4050 c0 -5 7 -10 15 -10 8 0 15 5 15 10 0 6 -7 10 -15 10 -8 0
-15 -4 -15 -10z"/>
<path d="M3325 4050 c-3 -5 -15 -10 -26 -10 -27 0 -24 -13 12 -39 36 -26 48
-21 30 13 -8 13 -10 29 -7 35 4 6 5 11 2 11 -3 0 -8 -4 -11 -10z"/>
<path d="M3795 4050 c3 -5 15 -10 25 -10 10 0 22 5 25 10 4 6 -7 10 -25 10
-18 0 -29 -4 -25 -10z"/>
<path d="M2876 4042 c-7 -12 22 -61 38 -62 4 0 25 -13 46 -30 21 -16 41 -30
44 -30 4 0 27 -20 52 -45 24 -25 49 -45 55 -45 6 0 28 -13 48 -28 49 -39 165
-92 200 -92 16 0 34 7 41 15 16 19 40 19 68 -1 14 -9 27 -12 37 -7 13 8 13 11
-1 31 -8 12 -23 22 -33 22 -10 0 -24 7 -31 15 -7 8 -19 15 -27 15 -8 0 -21 7
-29 15 -9 8 -22 15 -31 15 -22 0 -10 -25 15 -28 25 -4 28 -20 9 -46 -12 -16
-15 -16 -57 4 -25 12 -58 30 -75 40 -16 11 -39 24 -50 30 -11 6 -33 19 -50 30
-16 11 -37 23 -45 27 -8 4 -19 11 -25 15 -46 37 -146 108 -153 108 -5 0 -16
10 -24 22 -10 15 -17 18 -22 10z"/>
<path d="M3360 3971 c0 -5 16 -19 36 -32 20 -12 48 -33 62 -45 30 -28 92 -34
92 -8 0 10 -6 13 -18 10 -13 -4 -21 2 -29 24 -10 26 -16 30 -50 30 -21 0 -47
7 -57 15 -23 17 -36 19 -36 6z"/>
<path d="M3600 3890 c0 -6 8 -13 18 -17 24 -9 102 -90 102 -108 0 -7 5 -17 10
-20 6 -4 10 9 10 31 0 31 -7 45 -45 81 -43 41 -95 59 -95 33z"/>
<path d="M2037 3753 c8 -214 18 -255 58 -239 12 4 15 23 15 81 0 116 -19 217
-44 237 -11 10 -24 18 -27 18 -3 0 -4 -44 -2 -97z"/>
<path d="M3556 3811 c-3 -5 1 -12 10 -15 14 -5 12 -10 -10 -33 -45 -45 -30
-52 47 -20 33 14 34 33 5 58 -25 20 -44 24 -52 10z"/>
<path d="M3610 3682 c-16 -8 -44 -11 -76 -8 -49 4 -86 -5 -67 -17 6 -4 44 -6
85 -5 41 0 84 -3 96 -6 26 -9 64 2 60 16 -2 6 -19 15 -38 22 -28 9 -40 9 -60
-2z"/>
<path d="M6206 3652 c-12 -20 -36 -155 -36 -204 0 -63 38 -199 50 -177 14 24
17 366 4 379 -8 8 -14 8 -18 2z"/>
<path d="M3775 2860 c-16 -4 -64 -17 -105 -28 -41 -11 -94 -23 -118 -27 -23
-4 -79 -22 -125 -41 -45 -18 -91 -34 -102 -34 -11 0 -35 -9 -53 -20 -18 -11
-37 -20 -42 -20 -6 0 -40 -14 -77 -31 -119 -54 -133 -59 -152 -59 -11 0 -44
-10 -75 -21 -45 -18 -54 -24 -45 -35 14 -17 48 -18 103 -3 43 12 51 15 128 48
26 12 54 21 62 21 8 0 18 5 21 10 3 6 16 10 28 10 13 0 31 6 42 13 11 7 47 21
80 31 33 10 76 24 95 31 19 7 51 18 70 25 19 6 52 15 73 20 21 4 44 13 50 19
6 6 22 11 37 11 14 1 36 7 50 15 14 8 35 14 47 15 12 0 37 6 55 14 18 8 45 17
61 21 15 3 27 10 27 15 0 12 -91 12 -135 0z"/>
<path d="M5769 2792 c11 -21 27 -44 35 -51 9 -8 16 -19 16 -26 0 -11 153 -165
165 -165 3 0 3 16 -1 35 -5 28 -3 35 9 35 27 0 30 21 6 38 -12 9 -30 23 -38
31 -40 40 -180 141 -195 141 -15 0 -15 -3 3 -38z"/>
<path d="M6241 2661 c-14 -26 -14 -97 1 -120 9 -15 6 -25 -17 -55 -18 -24 -36
-36 -51 -36 -13 0 -24 -4 -24 -10 0 -5 6 -10 14 -10 7 0 27 -7 42 -15 16 -8
39 -15 50 -15 28 0 31 21 24 164 -5 110 -17 139 -39 97z"/>
<path d="M6073 2583 c-3 -10 -12 -25 -20 -34 -10 -12 -12 -35 -6 -100 5 -47
12 -83 18 -82 6 1 13 35 18 75 4 40 12 81 17 90 16 27 12 68 -5 68 -9 0 -18
-8 -22 -17z"/>
<path d="M3600 2550 c0 -5 15 -10 34 -10 19 0 38 5 41 10 4 6 -10 10 -34 10
-23 0 -41 -4 -41 -10z"/>
<path d="M6271 2343 c-28 -106 -137 -348 -236 -528 -18 -33 -59 -109 -90 -170
-32 -60 -77 -146 -101 -190 -25 -44 -51 -93 -60 -110 -8 -16 -23 -43 -34 -60
-11 -16 -24 -39 -30 -50 -6 -11 -19 -33 -30 -50 -11 -16 -23 -37 -27 -45 -3
-8 -22 -35 -40 -59 -38 -51 -41 -71 -13 -96 15 -13 20 -31 20 -65 0 -40 -5
-53 -35 -86 -30 -32 -35 -43 -28 -64 15 -50 6 -118 -21 -153 -34 -45 -47 -158
-22 -205 9 -17 16 -44 16 -59 0 -15 6 -48 14 -73 15 -47 31 -119 45 -207 5
-28 12 -57 16 -62 3 -7 40 -10 88 -10 45 1 71 4 57 6 -14 2 -40 9 -59 15 -33
10 -33 11 -29 59 3 27 1 52 -3 55 -5 3 -9 18 -9 34 0 28 -17 120 -28 150 -3 8
-4 23 -3 33 1 10 -2 24 -8 31 -20 24 -19 128 2 206 11 41 22 96 23 122 1 26
14 73 29 105 23 48 28 73 29 143 1 74 5 90 29 127 15 24 27 45 27 49 0 3 25
44 56 91 30 46 66 106 78 133 13 27 27 55 33 62 6 7 27 47 48 88 20 41 41 83
46 93 6 10 23 44 39 76 17 32 37 64 45 71 8 7 15 19 15 27 0 20 35 87 54 102
9 8 16 28 16 45 0 33 23 62 68 85 29 16 42 7 42 -30 0 -16 7 -46 15 -66 8 -19
15 -46 15 -60 0 -13 5 -34 11 -45 6 -11 20 -52 30 -91 11 -38 26 -79 34 -91 8
-11 15 -36 15 -54 0 -19 6 -48 14 -65 26 -59 56 -148 56 -168 0 -11 10 -33 21
-49 12 -16 19 -35 16 -44 -3 -8 1 -20 9 -26 8 -7 14 -27 14 -45 0 -19 4 -35 9
-37 11 -4 60 -129 68 -173 3 -16 12 -39 19 -51 9 -13 13 -48 12 -100 0 -43 2
-99 6 -124 7 -42 13 -62 51 -157 14 -36 35 -178 40 -273 3 -57 14 -119 26
-145 5 -11 10 -35 11 -54 3 -31 0 -35 -37 -46 l-40 -13 73 -1 72 -1 0 33 c-1
17 -7 50 -15 72 -8 22 -15 63 -15 90 0 28 -7 91 -15 140 -8 50 -15 113 -15
141 0 37 -8 66 -31 110 -26 51 -30 70 -31 139 -1 44 0 99 2 121 1 23 -4 54
-12 70 -8 16 -22 44 -31 62 -9 19 -17 41 -17 51 0 9 -7 26 -15 37 -8 10 -15
28 -15 40 0 11 -7 29 -15 40 -8 10 -15 26 -15 34 0 8 -7 28 -15 44 -8 15 -15
36 -15 45 0 10 -7 26 -15 37 -8 10 -15 28 -15 40 0 11 -7 29 -15 40 -8 10 -15
30 -15 42 0 13 -6 38 -14 55 -16 38 -34 105 -45 165 -4 24 -13 48 -19 54 -7 7
-12 23 -12 37 0 15 -7 39 -15 55 -8 15 -15 40 -15 55 0 14 -6 46 -14 71 -18
57 -35 137 -46 224 -5 38 -12 76 -16 85 -4 9 -10 47 -13 86 -4 51 -10 71 -21
73 -11 2 -19 -12 -29 -45z"/>
<path d="M6027 2343 c-4 -3 -7 -23 -7 -44 0 -23 -5 -39 -15 -43 -19 -7 -22
-90 -2 -84 6 3 13 22 15 44 2 21 10 43 18 47 8 5 14 24 14 47 0 38 -8 49 -23
33z"/>
<path d="M5967 2153 c-4 -3 -7 -21 -7 -38 0 -18 -7 -38 -15 -45 -8 -7 -15 -27
-15 -45 0 -20 -6 -35 -15 -39 -9 -3 -15 -18 -15 -40 0 -21 -6 -36 -15 -40 -9
-3 -15 -18 -15 -35 0 -16 -6 -31 -15 -35 -18 -7 -21 -60 -2 -54 6 3 14 15 15
29 2 13 10 28 18 32 8 4 14 21 14 36 0 16 7 31 15 35 9 3 15 18 15 40 0 21 6
36 15 40 9 3 15 18 15 39 0 19 7 40 15 47 8 7 15 28 15 46 0 32 -9 42 -23 27z"/>
<path d="M3355 2063 c-133 -13 -168 -23 -151 -40 4 -5 148 -9 319 -11 376 -4
710 -17 832 -31 117 -14 202 -14 211 0 10 17 -16 29 -63 29 -24 0 -62 4 -85
10 -24 5 -122 16 -218 25 -96 9 -219 20 -273 25 -136 14 -405 10 -572 -7z"/>
<path d="M2895 1904 c-58 -6 -154 -24 -200 -38 -22 -7 -74 -23 -115 -36 -41
-13 -82 -28 -90 -35 -8 -7 -23 -15 -33 -18 -12 -4 -15 -11 -10 -19 4 -7 6 -21
5 -30 -4 -20 22 -24 60 -9 13 4 50 16 83 26 101 29 158 47 195 60 73 26 116
39 155 46 82 17 135 34 132 44 -4 10 -107 15 -182 9z"/>
<path d="M5817 1763 c-10 -10 -8 -53 2 -53 10 0 21 24 21 46 0 15 -12 19 -23
7z"/>
<path d="M5780 1675 c0 -14 -7 -28 -15 -31 -9 -4 -15 -19 -15 -35 0 -19 -5
-29 -15 -29 -10 0 -15 -10 -15 -30 0 -20 -5 -30 -15 -30 -9 0 -15 -9 -15 -25
0 -14 -7 -28 -15 -31 -9 -4 -15 -19 -15 -35 0 -19 -5 -29 -15 -29 -10 0 -15
-10 -15 -29 0 -16 -6 -31 -15 -35 -8 -3 -15 -17 -15 -31 0 -16 -6 -25 -15 -25
-8 0 -15 -9 -15 -20 0 -28 19 -25 30 4 5 13 14 27 19 31 6 3 11 14 11 25 0 10
7 20 15 24 8 3 15 16 15 30 0 13 7 26 15 30 8 3 15 16 15 30 0 13 7 26 15 30
8 3 15 16 15 30 0 13 7 26 15 30 8 3 15 16 15 30 0 13 7 26 15 30 8 3 15 17
15 31 0 14 7 28 15 31 8 4 15 17 15 30 0 15 -6 24 -15 24 -9 0 -15 -9 -15 -25z"/>
<path d="M1890 1505 c0 -8 5 -15 10 -15 6 0 10 7 10 15 0 8 -4 15 -10 15 -5 0
-10 -7 -10 -15z"/>
<path d="M7670 1360 c0 -105 3 -159 10 -155 6 4 10 67 10 155 0 88 -4 151 -10
155 -7 4 -10 -50 -10 -155z"/>
<path d="M2443 1464 c-3 -9 0 -44 7 -78 7 -33 15 -82 17 -108 3 -26 11 -52 19
-59 8 -6 14 -19 14 -28 0 -9 7 -25 15 -35 8 -11 15 -27 15 -36 0 -10 11 -29
25 -44 28 -30 32 -62 11 -91 -21 -32 -25 -77 -10 -107 8 -16 18 -28 23 -28 5
0 12 -11 15 -25 15 -61 39 7 29 82 -5 35 -1 45 28 77 27 32 31 41 21 56 -14
22 -1 34 26 26 28 -9 186 104 169 120 -4 4 -47 -12 -96 -34 -49 -23 -98 -42
-109 -42 -11 0 -25 -7 -32 -15 -27 -32 -70 -4 -70 46 0 16 -4 29 -10 29 -5 0
-10 8 -10 18 -1 9 -9 35 -20 57 -11 22 -19 50 -20 61 0 12 -7 27 -15 34 -10 8
-15 31 -15 71 0 57 -14 86 -27 53z"/>
<path d="M2890 1390 c0 -5 7 -10 15 -10 8 0 15 5 15 10 0 6 -7 10 -15 10 -8 0
-15 -4 -15 -10z"/>
<path d="M2376 1360 c-15 -22 -21 -176 -7 -184 18 -11 22 14 19 110 -2 60 -6
84 -12 74z"/>
<path d="M2755 1326 c-33 -23 -62 -51 -63 -60 -3 -15 -1 -16 19 -6 17 10 105
77 138 106 2 2 -4 4 -15 3 -10 0 -46 -19 -79 -43z"/>
<path d="M5543 1213 c-4 -10 -12 -22 -20 -26 -15 -9 -18 -47 -3 -47 5 0 12 11
16 24 3 14 12 27 20 30 16 6 19 36 4 36 -6 0 -14 -8 -17 -17z"/>
<path d="M2335 1138 c-10 -25 -1 -173 10 -171 13 4 19 163 6 176 -7 7 -12 5
-16 -5z"/>
<path d="M5430 1121 c0 -6 5 -11 10 -11 6 0 10 -6 10 -14 0 -20 48 -56 76 -56
12 0 25 -6 27 -12 4 -10 6 -10 6 -1 1 7 -10 24 -24 39 -14 15 -25 35 -25 45 0
21 -20 25 -38 7 -8 -8 -15 -8 -27 2 -10 8 -15 9 -15 1z"/>
<path d="M5057 1045 c10 -13 21 -25 25 -25 3 0 24 -17 46 -38 78 -75 164 -148
220 -185 31 -21 62 -47 70 -58 9 -12 25 -19 48 -19 34 0 46 16 20 26 -8 3 -17
22 -21 42 -12 70 -14 74 -45 67 -21 -5 -39 1 -69 19 -22 14 -44 26 -48 26 -5
0 -26 14 -47 30 -22 17 -44 30 -48 30 -12 0 -75 47 -112 82 -37 36 -65 39 -39
3z"/>
<path d="M7650 1012 c0 -33 4 -64 10 -67 6 -4 8 16 4 57 -9 82 -14 86 -14 10z"/>
<path d="M5014 938 c9 -13 24 -34 33 -48 31 -46 56 -70 75 -70 28 0 22 11 -42
78 -59 61 -99 85 -66 40z"/>
<path d="M7670 873 c0 -63 23 -123 48 -123 14 0 17 46 3 55 -6 3 -13 25 -16
50 -4 24 -13 52 -21 62 -12 16 -13 11 -14 -44z"/>
<path d="M2307 913 c-3 -5 -2 -44 3 -88 l7 -80 2 88 c1 82 -1 97 -12 80z"/>
<path d="M2827 820 c-35 -22 -47 -36 -47 -54 0 -14 3 -27 8 -30 9 -6 62 41 85
76 31 48 20 50 -46 8z"/>
<path d="M6840 811 c0 -31 137 -228 212 -304 34 -35 51 -48 39 -30 -12 17 -21
40 -21 50 0 11 -9 28 -20 38 -11 10 -20 27 -20 37 0 23 -39 78 -56 78 -7 0
-16 10 -20 23 -16 52 -114 145 -114 108z"/>
<path d="M2695 798 c-4 -9 -2 -25 3 -35 10 -17 11 -17 17 -1 4 9 2 25 -3 35
-10 17 -11 17 -17 1z"/>
<path d="M3816 791 c-5 -7 7 -11 38 -11 28 0 58 -8 78 -20 18 -11 50 -20 70
-20 20 0 49 -5 65 -11 15 -6 57 -15 93 -20 36 -5 94 -16 130 -25 74 -20 357
-31 372 -16 12 12 -70 25 -103 17 -42 -10 -229 31 -249 55 -11 13 -37 19 -110
24 -92 6 -206 17 -321 31 -38 5 -59 4 -63 -4z"/>
<path d="M2616 738 c-3 -18 -8 -73 -12 -123 -3 -49 -11 -108 -16 -130 -6 -22
-14 -71 -18 -110 -9 -80 -27 -176 -42 -220 -6 -16 -13 -49 -18 -73 -4 -24 -12
-48 -18 -54 -23 -23 -11 -28 57 -28 l69 0 6 78 c4 42 11 100 17 127 6 28 15
84 20 125 4 41 12 95 18 120 5 25 11 97 13 160 2 102 0 118 -17 138 -28 32
-52 28 -59 -10z"/>
<path d="M7737 734 c-4 -4 -7 -50 -7 -103 1 -69 5 -102 15 -115 10 -13 15 -43
15 -86 0 -36 5 -71 11 -77 6 -6 13 -54 15 -108 4 -98 17 -145 43 -153 11 -4
13 6 7 49 -3 30 -9 90 -12 134 -4 44 -13 89 -20 100 -8 11 -14 44 -14 75 0 31
-7 63 -14 73 -12 16 -12 24 0 52 22 53 18 111 -9 141 -13 13 -26 21 -30 18z"/>
<path d="M2727 714 c-10 -10 -9 -54 2 -54 12 0 22 43 13 52 -5 5 -11 5 -15 2z"/>
<path d="M2277 593 c-3 -15 -1 -36 3 -47 7 -16 9 -9 9 27 1 52 -4 61 -12 20z"/>
<path d="M4455 460 c-8 -12 20 -24 35 -15 5 3 10 10 10 16 0 12 -37 12 -45 -1z"/>
<path d="M2739 355 c-5 -8 -16 -163 -24 -319 0 -5 6 -11 13 -14 9 -3 12 19 12
90 0 51 4 107 8 123 9 32 1 136 -9 120z"/>
<path d="M2252 320 c0 -19 2 -27 5 -17 2 9 2 25 0 35 -3 9 -5 1 -5 -18z"/>
<path d="M1621 232 c-14 -26 -14 -42 -1 -42 11 0 25 48 17 56 -3 3 -10 -3 -16
-14z"/>
</g>
</svg>
