<?xml version="1.0" standalone="no"?>
<!DOCTYPE svg PUBLIC "-//W3C//DTD SVG 20010904//EN"
 "http://www.w3.org/TR/2001/REC-SVG-20010904/DTD/svg10.dtd">
<svg version="1.0" xmlns="http://www.w3.org/2000/svg"
 width="800.000000pt" height="800.000000pt" viewBox="0 0 800.000000 800.000000"
 preserveAspectRatio="xMidYMid meet">

<g transform="translate(0.000000,800.000000) scale(0.100000,-0.100000)"
fill="#000000" stroke="none">
<path d="M2111 5369 l-723 -1001 28 -56 c15 -32 84 -174 154 -317 70 -143 180
-368 245 -500 65 -132 166 -339 225 -460 59 -121 180 -368 269 -550 89 -181
178 -365 199 -407 40 -83 34 -80 137 -92 22 -3 103 -14 180 -25 77 -11 159
-22 182 -25 24 -3 71 -10 105 -15 35 -6 146 -22 248 -36 102 -13 250 -34 330
-45 80 -11 159 -22 175 -24 46 -6 335 -46 375 -52 19 -3 94 -13 165 -24 72
-10 150 -21 175 -24 25 -3 106 -14 180 -25 74 -11 159 -22 188 -26 29 -3 75
-10 104 -15 28 -6 65 -10 82 -9 30 0 65 47 755 1000 l723 1001 -28 56 c-15 32
-84 174 -154 317 -70 143 -183 375 -252 515 -69 140 -166 338 -216 440 -49
102 -169 347 -266 545 -97 198 -190 390 -208 427 -35 72 -32 70 -133 82 -22 3
-103 14 -180 25 -77 11 -159 22 -182 25 -24 3 -71 10 -105 15 -35 6 -146 22
-248 36 -102 13 -250 34 -330 45 -80 11 -158 22 -175 24 -46 6 -335 46 -375
52 -19 3 -93 13 -165 24 -71 10 -150 21 -175 24 -25 3 -108 14 -185 25 -77 11
-162 23 -189 26 -27 4 -72 10 -99 16 -27 5 -64 9 -81 8 -30 0 -65 -47 -755
-1000z m924 961 c22 -4 67 -11 100 -15 33 -3 67 -8 75 -10 8 -2 40 -6 71 -10
31 -3 65 -7 75 -9 23 -4 84 -13 139 -21 22 -3 51 -7 65 -10 14 -2 45 -7 70
-10 53 -6 212 -27 365 -50 61 -9 142 -20 180 -25 39 -4 133 -17 210 -29 77
-11 163 -23 190 -26 28 -3 59 -8 70 -10 11 -2 43 -7 70 -10 28 -3 75 -10 105
-15 30 -5 79 -11 109 -15 30 -3 64 -8 75 -10 12 -2 44 -7 71 -10 28 -3 77 -10
110 -15 33 -5 80 -12 105 -15 50 -6 104 -14 136 -20 14 -3 28 -19 37 -42 8
-21 101 -211 205 -423 240 -487 411 -837 519 -1060 47 -96 157 -321 244 -499
88 -177 159 -325 159 -327 0 -1 -322 -448 -716 -991 l-716 -988 -46 -1 c-26 0
-80 5 -120 12 -40 7 -98 15 -130 19 -31 3 -64 8 -72 10 -8 2 -40 6 -71 10 -31
3 -65 7 -75 9 -23 4 -84 13 -139 21 -22 3 -51 7 -65 10 -14 2 -45 7 -70 10
-53 6 -210 27 -365 50 -60 9 -144 20 -185 25 -41 5 -136 18 -210 29 -74 11
-157 22 -185 26 -27 3 -59 8 -70 10 -11 2 -42 7 -70 10 -27 3 -75 10 -105 15
-30 5 -79 11 -109 15 -30 3 -64 8 -75 10 -12 2 -43 7 -71 10 -27 3 -77 10
-110 15 -33 5 -80 12 -105 15 -50 6 -104 14 -136 20 -14 3 -28 19 -37 42 -8
21 -103 216 -210 433 -207 421 -349 711 -507 1036 -54 110 -169 344 -254 519
-86 175 -155 321 -154 325 2 4 325 451 718 994 l715 987 75 -6 c41 -4 93 -10
115 -15z"/>
<path d="M3303 5460 c-113 -56 -194 -173 -228 -325 -14 -60 -16 -138 -13 -516
4 -434 4 -445 27 -506 32 -89 91 -175 153 -224 34 -27 244 -137 580 -303 l528
-261 0 -242 0 -242 -397 -3 -398 -3 -55 -26 c-99 -46 -190 -162 -207 -262 l-6
-37 614 0 614 0 50 24 c115 54 198 165 236 316 19 74 21 104 17 294 -4 194 -7
217 -30 282 -29 83 -87 174 -134 212 -18 14 -277 151 -576 304 l-543 277 -3
471 -2 470 445 0 445 0 0 -375 0 -375 236 0 236 0 -5 343 c-4 282 -7 352 -21
402 -42 147 -128 264 -228 310 l-53 25 -611 0 -611 0 -60 -30z"/>
</g>
</svg>
